<?xml version="1.0" encoding="UTF-8" standalone="no"?>
<!-- Generator: Adobe Illustrator 17.0.2, SVG Export Plug-In . SVG Version: 6.00 Build 0)  -->

<svg
   xmlns:osb="http://www.openswatchbook.org/uri/2009/osb"
   xmlns:dc="http://purl.org/dc/elements/1.1/"
   xmlns:cc="http://creativecommons.org/ns#"
   xmlns:rdf="http://www.w3.org/1999/02/22-rdf-syntax-ns#"
   xmlns:svg="http://www.w3.org/2000/svg"
   xmlns="http://www.w3.org/2000/svg"
   xmlns:xlink="http://www.w3.org/1999/xlink"
   xmlns:sodipodi="http://sodipodi.sourceforge.net/DTD/sodipodi-0.dtd"
   xmlns:inkscape="http://www.inkscape.org/namespaces/inkscape"
   version="1.1"
   id="Layer_1"
   x="0px"
   y="0px"
   width="105.945px"
   height="140.869px"
   viewBox="0 0 105.945 157.869"
   enable-background="new 0 0 105.945 140.869"
   xml:space="preserve"
   inkscape:version="0.48.5 r10040"
   sodipodi:docname="logo_details.svg"><metadata
   id="metadata3296"><rdf:RDF><cc:Work
       rdf:about=""><dc:format>image/svg+xml</dc:format><dc:type
         rdf:resource="http://purl.org/dc/dcmitype/StillImage" /><dc:title></dc:title></cc:Work></rdf:RDF></metadata><defs
   id="defs3294"><linearGradient
     id="linearGradient5413"
     osb:paint="solid"><stop
       style="stop-color:#780000;stop-opacity:0.22751322;"
       offset="0"
       id="stop5415" /></linearGradient><linearGradient
     inkscape:collect="always"
     xlink:href="#linearGradient5413"
     id="linearGradient5417"
     x1="31.045007"
     y1="79.99474"
     x2="21.624294"
     y2="80.542114"
     gradientUnits="userSpaceOnUse" /></defs><sodipodi:namedview
   pagecolor="#ffffff"
   bordercolor="#666666"
   borderopacity="1"
   objecttolerance="10"
   gridtolerance="10"
   guidetolerance="10"
   inkscape:pageopacity="0"
   inkscape:pageshadow="2"
   inkscape:window-width="1920"
   inkscape:window-height="1137"
   id="namedview3292"
   showgrid="true"
   inkscape:zoom="5.6568539"
   inkscape:cx="81.450014"
   inkscape:cy="96.281346"
   inkscape:window-x="-8"
   inkscape:window-y="-8"
   inkscape:window-maximized="1"
   inkscape:current-layer="Layer_1"><inkscape:grid
     type="xygrid"
     id="grid3106"
     empspacing="5"
     visible="true"
     enabled="true"
     snapvisiblegridlinesonly="true" /></sodipodi:namedview>


<g
   id="g3262"
   transform="matrix(0.80913361,0,0,0.80913361,73.885291,11.065444)">
</g><g
   id="g3264"
   transform="matrix(0.80913361,0,0,0.80913361,73.885291,11.065444)">
</g><g
   id="g3266"
   transform="matrix(0.80913361,0,0,0.80913361,73.885291,11.065444)">
</g><g
   id="g3268"
   transform="matrix(0.80913361,0,0,0.80913361,73.885291,11.065444)">
</g><g
   id="g3270"
   transform="matrix(0.80913361,0,0,0.80913361,73.885291,11.065444)">
</g><g
   id="g3272"
   transform="matrix(0.80913361,0,0,0.80913361,73.885291,11.065444)">
</g><g
   id="g3274"
   transform="matrix(0.80913361,0,0,0.80913361,73.885291,11.065444)">
</g><g
   id="g3276"
   transform="matrix(0.80913361,0,0,0.80913361,73.885291,11.065444)">
</g><g
   id="g3278"
   transform="matrix(0.80913361,0,0,0.80913361,73.885291,11.065444)">
</g><g
   id="g3280"
   transform="matrix(0.80913361,0,0,0.80913361,73.885291,11.065444)">
</g><g
   id="g3282"
   transform="matrix(0.80913361,0,0,0.80913361,73.885291,11.065444)">
</g><g
   id="g3284"
   transform="matrix(0.80913361,0,0,0.80913361,73.885291,11.065444)">
</g><g
   id="g3286"
   transform="matrix(0.80913361,0,0,0.80913361,73.885291,11.065444)">
</g><g
   id="g3288"
   transform="matrix(0.80913361,0,0,0.80913361,73.885291,11.065444)">
</g><g
   id="g3290"
   transform="matrix(0.80913361,0,0,0.80913361,73.885291,11.065444)">
</g><text
   xml:space="preserve"
   style="font-size:32.365345px;font-style:normal;font-weight:normal;line-height:125%;letter-spacing:0px;word-spacing:0px;fill:#000000;fill-opacity:1;stroke:none;font-family:Sans"
   x="86.75853"
   y="118.20538"
   id="text3108"
   sodipodi:linespacing="125%"><tspan
     sodipodi:role="line"
     id="tspan3110"
     x="86.75853"
     y="118.20538" /></text>
<g
   id="g3070"
   transform="matrix(0.90677945,0,0,0.90677945,48.203308,-74.29061)" />



















<path
   style="font-size:medium;font-style:normal;font-variant:normal;font-weight:normal;font-stretch:normal;text-indent:0;text-align:start;text-decoration:none;line-height:normal;letter-spacing:normal;word-spacing:normal;text-transform:none;direction:ltr;block-progression:tb;writing-mode:lr-tb;text-anchor:start;baseline-shift:baseline;color:#000000;fill:url(#linearGradient5417);fill-opacity:1;stroke:none;stroke-width:1px;marker:none;visibility:visible;display:inline;overflow:visible;enable-background:accumulate;font-family:Sans;-inkscape-font-specification:Sans"
   d="m 53.29733,11.381918 c -1.414691,0.798751 -1.733324,1.09845 -2.303205,1.91943 -0.540149,0.778147 -0.887155,1.735674 -0.941089,2.681383 -0.04122,0.722826 0.481631,2.117928 0.481631,2.117928 l -0.01747,1.725811 c 0,0 -1.888434,1.075101 -2.342863,1.994566 -0.397409,0.804094 -0.323043,1.808783 -0.141254,2.687107 0.09666,0.467041 0.636105,1.281644 0.636105,1.281644 l -7.99334,8.804471 c 0,0 -2.829691,1.983771 -3.817315,3.362039 -0.707154,0.986862 -1.224825,2.160797 -1.400849,3.362038 -0.163363,1.114838 -0.05279,2.361027 0.350212,3.362038 l -0.03502,11.59875 c 0,0 -0.802638,1.220001 -0.875531,1.919447 -0.132916,1.275405 0.24478,2.618463 0.840513,3.753993 0.487408,0.929051 1.335325,1.633795 2.136296,2.311401 0.585846,0.495614 1.727795,0.706263 1.926167,1.260764 -0.04141,0.620701 -0.09441,1.36747 0.105064,2.007 0.145736,0.46725 0.770464,1.249976 0.770464,1.249976 l -0.612868,15.122451 c -0.379197,0.532741 -0.646281,1.007816 -0.735445,1.582678 -0.09165,0.590888 -0.160556,1.308011 0.227633,1.77936 l -0.893037,18.165237 c 0,0 -0.609187,0.77281 -0.647893,1.23653 -0.03749,0.44909 0.420251,1.285 0.420251,1.285 l -1.120681,19.20914 c -0.580281,0.41848 -1.239576,1.18875 -1.453376,1.9787 -0.116532,0.43056 0.140085,1.33081 0.140085,1.33081 l -2.048747,21.23767 c 0,0 -0.568013,0.30967 -0.763969,0.55632 -1.137427,1.43171 -2.142789,5.04978 -2.142789,5.04978 0,0 28.530633,0 42.795949,0 0,0 -0.815353,-3.32244 -1.856132,-4.61201 -0.163423,-0.20249 -0.646325,-0.43777 -0.646325,-0.43777 l -1.560006,-21.95157 c 0,0 -0.421944,-1.3013 -0.805489,-1.85606 -0.333231,-0.48199 -0.758554,-0.79389 -1.261492,-1.22427 l -0.544802,-18.96494 c 0,0 0.559455,-1.30489 0.405439,-1.95102 -0.120551,-0.50573 -0.972097,-1.21973 -0.972097,-1.21973 L 66.223838,87.476472 c 0.314393,-0.437196 0.578498,-1.19037 0.507814,-1.814431 -0.05909,-0.521658 -0.752956,-1.383337 -0.752956,-1.383337 l -0.6479,-14.943382 c 0,0 0.733744,-1.163377 0.928073,-1.814278 0.171306,-0.573787 0.383177,-1.007616 0.192607,-1.786083 0.46234,-0.429514 1.154828,-0.665487 1.90752,-1.172702 0.9811,-0.661133 2.23262,-2.104277 2.767814,-3.071693 0.54708,-0.988902 0.421015,-1.931954 0.28018,-2.889252 -0.109812,-0.746428 -0.264198,-0.704651 -0.858021,-2.094449 l 0.103606,-11.826492 c 0,0 0.789596,-1.448923 0.79244,-2.241358 0.005,-1.385193 -0.243114,-2.094613 -1.357041,-3.927784 -0.867385,-1.427442 -2.124501,-2.210719 -2.79525,-2.796293 l -9.387149,-9.93708 c 0.536361,-0.391503 0.897779,-0.746556 1.093427,-1.269715 0.300849,-0.804466 0.367833,-1.794737 0.01238,-2.576612 -0.438951,-0.965545 -1.484537,-1.334357 -2.407602,-2.080395 l -0.04378,-1.747692 c 0.315543,-0.811398 0.52866,-1.435727 0.516349,-2.183549 -0.01489,-0.904329 -0.216421,-1.861294 -0.710993,-2.618547 -0.552976,-0.846677 -2.361261,-1.904795 -2.361261,-1.904795 l -0.164882,-8.7224523 -0.331384,1e-7 z"
   id="path3179"
   inkscape:connector-curvature="0"
   sodipodi:nodetypes="caaccaaccaaccaaacaccacccccaccaccaccaccaccaccacssaccasccaaccaacccc" /><path
   style="font-size:medium;font-style:normal;font-variant:normal;font-weight:normal;font-stretch:normal;text-indent:0;text-align:start;text-decoration:none;line-height:normal;letter-spacing:normal;word-spacing:normal;text-transform:none;direction:ltr;block-progression:tb;writing-mode:lr-tb;text-anchor:start;baseline-shift:baseline;color:#000000;fill:#000000;fill-opacity:0.24338624;stroke:none;stroke-width:1px;marker:none;visibility:visible;display:inline;overflow:visible;enable-background:accumulate;font-family:Sans;-inkscape-font-specification:Sans"
   d="m 48.312235,71.774791 c -0.520254,0.04264 -1.424155,0.651246 -1.424155,0.651246 l -0.115321,5.874721 2.868521,-0.188227 0,-5.976552 c 0,0 -0.871496,-0.398681 -1.329045,-0.361188 z"
   id="path5530"
   inkscape:connector-curvature="0"
   sodipodi:nodetypes="acccca" /><path
   style="font-size:medium;font-style:normal;font-variant:normal;font-weight:normal;font-stretch:normal;text-indent:0;text-align:start;text-decoration:none;line-height:normal;letter-spacing:normal;word-spacing:normal;text-transform:none;direction:ltr;block-progression:tb;writing-mode:lr-tb;text-anchor:start;baseline-shift:baseline;color:#000000;fill:#000000;fill-opacity:0.33333333;stroke:none;stroke-width:1px;marker:none;visibility:visible;display:inline;overflow:visible;enable-background:accumulate;font-family:Sans;-inkscape-font-specification:Sans"
   d="m 58.606716,93.090023 c -0.476286,-0.05561 -1.41074,0.281566 -1.41074,0.281566 l 0.14118,6.448825 2.39024,0.15562 0,-6.372773 c 0,0 -0.712581,-0.465589 -1.12068,-0.513238 z"
   id="path5532"
   inkscape:connector-curvature="0"
   sodipodi:nodetypes="acccca" /><path
   style="font-size:medium;font-style:normal;font-variant:normal;font-weight:normal;font-stretch:normal;text-indent:0;text-align:start;text-decoration:none;line-height:normal;letter-spacing:normal;word-spacing:normal;text-transform:none;direction:ltr;block-progression:tb;writing-mode:lr-tb;text-anchor:start;baseline-shift:baseline;color:#000000;fill:#000000;fill-opacity:0.34920636;stroke:none;stroke-width:1px;marker:none;visibility:visible;display:inline;overflow:visible;enable-background:accumulate;font-family:Sans;-inkscape-font-specification:Sans"
   d="m 39.942889,95.648032 c -0.134413,0.0258 -0.313433,0.265236 -0.313433,0.265236 l -0.287935,6.095022 1.052698,-0.60804 0.09905,-5.567949 c 0,0 -0.360378,-0.220734 -0.55038,-0.184269 z"
   id="path5534"
   inkscape:connector-curvature="0"
   sodipodi:nodetypes="acccca" /><path
   style="font-size:medium;font-style:normal;font-variant:normal;font-weight:normal;font-stretch:normal;text-indent:0;text-align:start;text-decoration:none;line-height:normal;letter-spacing:normal;word-spacing:normal;text-transform:none;direction:ltr;block-progression:tb;writing-mode:lr-tb;text-anchor:start;baseline-shift:baseline;color:#000000;fill:#000000;fill-opacity:0.30158733;stroke:none;stroke-width:1px;marker:none;visibility:visible;display:inline;overflow:visible;enable-background:accumulate;font-family:Sans;-inkscape-font-specification:Sans"
   d="m 45.526865,115.4392 -0.07429,6.73603 3.068026,-0.0194 2e-6,-6.87266 c 0,0 -1.000264,-0.49251 -1.533529,-0.46376 -0.527999,0.0285 -1.460209,0.61978 -1.460209,0.61978 z"
   id="path5536"
   inkscape:connector-curvature="0"
   sodipodi:nodetypes="ccccac" /><path
   style="font-size:medium;font-style:normal;font-variant:normal;font-weight:normal;font-stretch:normal;text-indent:0;text-align:start;text-decoration:none;line-height:normal;letter-spacing:normal;word-spacing:normal;text-transform:none;direction:ltr;block-progression:tb;writing-mode:lr-tb;text-anchor:start;baseline-shift:baseline;color:#000000;fill:#000000;fill-opacity:0.24867727;stroke:none;stroke-width:1px;marker:none;visibility:visible;display:inline;overflow:visible;enable-background:accumulate;font-family:Sans;-inkscape-font-specification:Sans"
   d="m 59.849972,133.97373 c -0.468954,-0.0193 -1.383339,0.26266 -1.383339,0.26266 l -0.03502,5.54211 2.731656,-0.0263 -0.0088,-5.41751 c 0,0 -0.85374,-0.34239 -1.304544,-0.36095 z"
   id="path5538"
   inkscape:connector-curvature="0"
   sodipodi:nodetypes="acccca" /><path
   style="font-size:medium;font-style:normal;font-variant:normal;font-weight:normal;font-stretch:normal;text-indent:0;text-align:start;text-decoration:none;line-height:normal;letter-spacing:normal;word-spacing:normal;text-transform:none;direction:ltr;block-progression:tb;writing-mode:lr-tb;text-anchor:start;baseline-shift:baseline;color:#000000;fill:#000000;fill-opacity:0.34391533;stroke:none;stroke-width:1px;marker:none;visibility:visible;display:inline;overflow:visible;enable-background:accumulate;font-family:Sans;-inkscape-font-specification:Sans"
   d="m 36.193127,135.21984 -0.462311,4.71829 0.978408,0 0.298193,-4.48272 c 0,0 0.04946,-0.60886 -0.173347,-0.6911 -0.245895,-0.0907 -0.640943,0.45553 -0.640943,0.45553 z"
   id="path5540"
   inkscape:connector-curvature="0"
   sodipodi:nodetypes="ccccac" /><path
   style="font-size:medium;font-style:normal;font-variant:normal;font-weight:normal;font-stretch:normal;text-indent:0;text-align:start;text-decoration:none;line-height:normal;letter-spacing:normal;word-spacing:normal;text-transform:none;direction:ltr;block-progression:tb;writing-mode:lr-tb;text-anchor:start;baseline-shift:baseline;color:#000000;fill:#005d00;fill-opacity:0.16931218;stroke:none;stroke-width:1px;marker:none;visibility:visible;display:inline;overflow:visible;enable-background:accumulate;font-family:Sans;-inkscape-font-specification:Sans"
   d="m 45.648861,142.93022 -1.610978,0.36995 -0.380639,11.97884 -0.0041,0.61372 -0.552092,0.0134 0.01095,0.59129 -0.553893,0.0261 -0.01656,0.58663 -0.552411,0.0125 4.165514,-0.0106 0.547704,0.0157 0.0082,-0.55532 -4.130546,-0.0414 4.145487,0.0435 0.588889,-0.0162 -0.0054,-0.63219 -4.203311,-0.0197 4.202795,0.0199 0.532266,-0.019 0.01919,-0.604 -4.201257,-0.0275 4.207198,0.0321 0.08129,-12.00803 z"
   id="path5542"
   inkscape:connector-curvature="0"
   sodipodi:nodetypes="cccccccccccccccccccccccc" /><path
   style="font-size:medium;font-style:normal;font-variant:normal;font-weight:normal;font-stretch:normal;text-indent:0;text-align:start;text-decoration:none;line-height:normal;letter-spacing:normal;word-spacing:normal;text-transform:none;direction:ltr;block-progression:tb;writing-mode:lr-tb;text-anchor:start;baseline-shift:baseline;color:#000000;fill:#000000;fill-opacity:0.52910055;stroke:none;stroke-width:1px;marker:none;visibility:visible;display:inline;overflow:visible;enable-background:accumulate;font-family:Sans;-inkscape-font-specification:Sans"
   d="m 43.699689,103.79517 c -0.83312,0.12442 -1.656362,0.32982 -2.456418,0.59341 -0.891808,0.29383 -2.595075,1.09566 -2.595075,1.09566 0,0 -0.62792,0.74971 -0.662148,1.20747 -0.0323,0.43196 0.448438,1.21968 0.448438,1.21968 -0.142527,-0.13414 0.316469,-0.79801 0.851305,-1.25058 0.412492,-0.34904 0.785385,-0.50225 1.21361,-0.68028 1.132315,-0.47074 2.327597,-0.81272 3.538482,-1.00634 3.258667,-0.52106 6.592456,-0.43786 9.892255,-0.39619 1.995976,0.0252 4.003294,0.0835 5.97565,0.39067 1.841212,0.28677 3.684782,0.6828 5.425005,1.34907 0.453582,0.17367 0.895566,0.39546 1.287284,0.68261 0.167877,0.12306 0.349952,0.2529 0.445007,0.43807 0.130536,0.2543 0.132591,0.84722 0.132591,0.84722 0,0 0.547001,-1.32217 0.376477,-1.9679 -0.125277,-0.47439 -0.495767,-0.94614 -0.954326,-1.12068 -2.039125,-0.77614 -3.832226,-1.11455 -5.795936,-1.4426 -2.198937,-0.36735 -4.433671,-0.55107 -6.662868,-0.5819 -3.492282,-0.0483 -7.005025,0.10674 -10.459333,0.62261 z"
   id="path5587"
   inkscape:connector-curvature="0"
   sodipodi:nodetypes="aacacsaaaaaaacasaaa" /><path
   style="font-size:medium;font-style:normal;font-variant:normal;font-weight:normal;font-stretch:normal;text-indent:0;text-align:start;text-decoration:none;line-height:normal;letter-spacing:normal;word-spacing:normal;text-transform:none;direction:ltr;block-progression:tb;writing-mode:lr-tb;text-anchor:start;baseline-shift:baseline;color:#000000;fill:#000000;fill-opacity:0.38624339;stroke:none;stroke-width:1px;marker:none;visibility:visible;display:inline;overflow:visible;enable-background:accumulate;font-family:Sans;-inkscape-font-specification:Sans"
   d="m 43.116346,82.450606 c -1.06611,0.341632 -2.227881,0.67022 -3.027692,1.453549 -0.388885,0.380872 -0.639294,0.921651 -0.737242,1.457096 -0.114911,0.628179 0.203753,1.904942 0.203753,1.904942 0,0 0.257403,-1.117556 0.576279,-1.577798 0.367448,-0.530348 0.92447,-0.914295 1.468936,-1.260478 0.615867,-0.391581 1.299184,-0.682836 1.996006,-0.899788 1.690254,-0.526252 3.46176,-0.79273 5.224901,-0.951582 2.620813,-0.236124 5.285007,-0.337221 7.894284,0.0035 2.383156,0.311194 4.71038,1.027433 6.96922,1.848356 0.678435,0.246561 1.49698,0.365536 1.961195,0.918321 0.465534,0.554355 0.491588,1.658195 0.567078,2.096356 0.36982,-0.261332 0.58992,-1.106899 0.536091,-1.697988 -0.04973,-0.546064 -0.377689,-1.070775 -0.770465,-1.453379 -0.471562,-0.459351 -1.152839,-0.646023 -1.768576,-0.87892 -2.351349,-0.889374 -4.792093,-1.624497 -7.284409,-1.953419 -2.678246,-0.35346 -5.412945,-0.235803 -8.104408,-0.0035 -1.923191,0.165993 -3.866686,0.405666 -5.704951,0.994732 z"
   id="path5591"
   inkscape:connector-curvature="0"
   sodipodi:nodetypes="aaacaaaaaaacaaaaaa" /><path
   style="font-size:medium;font-style:normal;font-variant:normal;font-weight:normal;font-stretch:normal;text-indent:0;text-align:start;text-decoration:none;line-height:normal;letter-spacing:normal;word-spacing:normal;text-transform:none;direction:ltr;block-progression:tb;writing-mode:lr-tb;text-anchor:start;baseline-shift:baseline;color:#000000;fill:#000000;fill-opacity:0.39682539;stroke:none;stroke-width:1px;marker:none;visibility:visible;display:inline;overflow:visible;enable-background:accumulate;font-family:Sans;-inkscape-font-specification:Sans"
   d="m 47.13177,126.04173 c -3.288667,0.18233 -9.817964,1.1157 -9.817964,1.1157 0,0 -1.269792,1.16057 -1.44177,1.9506 -0.11033,0.50684 0.321091,1.52263 0.321091,1.52263 0,0 2.044112,-0.59735 3.091079,-0.77865 2.677941,-0.46372 5.400527,-0.66384 8.115716,-0.78279 3.840782,-0.16826 7.69545,-0.13187 11.532971,0.0991 3.642998,0.21926 10.880618,1.21974 10.880618,1.21974 0,0 -0.363615,-1.38365 -0.752674,-1.96862 -0.316189,-0.4754 -1.238989,-1.18269 -1.238989,-1.18269 0,0 -6.125239,-0.96903 -9.215132,-1.16771 -3.81711,-0.24544 -7.655819,-0.23906 -11.474946,-0.0273 z"
   id="path5595"
   inkscape:connector-curvature="0"
   sodipodi:nodetypes="acacaaacacaa" /><path
   style="font-size:medium;font-style:normal;font-variant:normal;font-weight:normal;font-stretch:normal;text-indent:0;text-align:start;text-decoration:none;line-height:normal;letter-spacing:normal;word-spacing:normal;text-transform:none;direction:ltr;block-progression:tb;writing-mode:lr-tb;text-anchor:start;baseline-shift:baseline;color:#000000;fill:#000000;fill-opacity:0.60317461;stroke:none;stroke-width:1px;marker:none;visibility:visible;display:inline;overflow:visible;enable-background:accumulate;font-family:Sans;-inkscape-font-specification:Sans"
   d="m 41.796524,63.195815 c -0.822988,0.681304 -1.640179,1.508174 -1.978698,2.521529 -0.182404,0.546026 -0.132686,1.176123 0.03549,1.726698 0.147882,0.484139 0.822529,1.27663 0.822529,1.27663 0,0 0.184293,-1.523304 0.553399,-2.173419 0.393645,-0.693336 1.021028,-1.257758 1.68796,-1.694649 1.100761,-0.721082 2.400051,-1.118965 3.67702,-1.436744 1.357141,-0.33773 2.769986,-0.435933 4.167736,-0.482704 2.414742,-0.0808 4.856757,-0.0476 7.23979,0.350732 1.358204,0.227025 2.733194,0.541378 3.967005,1.152909 1.125867,0.55803 2.395191,1.158812 3.029336,2.243632 0.450102,0.76998 0.332702,2.654893 0.332702,2.654893 0,0 0.686712,-1.098483 0.876294,-1.710388 0.189718,-0.612344 0.425497,-1.292645 0.244386,-1.90759 -0.27056,-0.91866 -1.128162,-1.569202 -1.851409,-2.196938 -0.963368,-0.836146 -2.061965,-1.550692 -3.244181,-2.02984 -1.652753,-0.669856 -3.520526,-0.946095 -5.231327,-1.12068 -2.081805,-0.212446 -3.96258,-0.08213 -5.677787,0 -1.354523,0.06486 -3.050971,0.207225 -4.491107,0.673643 -1.485066,0.480971 -2.956696,1.156854 -4.159138,2.152286 z"
   id="path5599"
   inkscape:connector-curvature="0"
   sodipodi:nodetypes="aaacaaaaaaacaaaassaa" /><path
   style="fill:none;stroke:#000000;stroke-width:1px;stroke-linecap:butt;stroke-linejoin:miter;stroke-opacity:1"
   d="m 42.011049,30.913197 c 0,0 5.251161,-1.798645 7.98895,-2.044194 3.117904,-0.279642 6.306684,0.01399 9.367192,0.671875 2.245688,0.48273 6.468746,2.374993 6.468746,2.374993"
   id="path5603"
   inkscape:connector-curvature="0"
   transform="matrix(1.1206795,0,0,1.1206795,-6.3926931,0)"
   sodipodi:nodetypes="caac" /><path
   style="fill:none;stroke:#000000;stroke-width:1px;stroke-linecap:butt;stroke-linejoin:miter;stroke-opacity:1"
   d="m 37.625002,50.197122 c 0,0 4.100673,-2.570637 6.374997,-3.32812 2.883984,-0.960535 5.961032,-1.40136 9,-1.46967 2.856742,-0.06421 5.747679,0.283539 8.513864,1.000001 1.4726,0.381414 2.912701,0.958655 4.220972,1.734835 1.07363,0.636971 2.90977,2.357744 2.90977,2.357744 l 0,0"
   id="path5617"
   inkscape:connector-curvature="0"
   transform="matrix(1.1206795,0,0,1.1206795,-6.3926931,0)"
   sodipodi:nodetypes="caaaacc" /><path
   style="font-size:medium;font-style:normal;font-variant:normal;font-weight:normal;font-stretch:normal;text-indent:0;text-align:start;text-decoration:none;line-height:normal;letter-spacing:normal;word-spacing:normal;text-transform:none;direction:ltr;block-progression:tb;writing-mode:lr-tb;text-anchor:start;baseline-shift:baseline;color:#000000;fill:#000000;fill-opacity:0.35449733;stroke:none;stroke-width:1px;marker:none;visibility:visible;display:inline;overflow:visible;enable-background:accumulate;font-family:Sans;-inkscape-font-specification:Sans"
   d="m 67.931122,59.002025 -1.348318,0.735445 -0.402745,1.392095 1.234499,-0.858021 z"
   id="path5619"
   inkscape:connector-curvature="0"
   sodipodi:nodetypes="ccccc" /><path
   style="font-size:medium;font-style:normal;font-variant:normal;font-weight:normal;font-stretch:normal;text-indent:0;text-align:start;text-decoration:none;line-height:normal;letter-spacing:normal;word-spacing:normal;text-transform:none;direction:ltr;block-progression:tb;writing-mode:lr-tb;text-anchor:start;baseline-shift:baseline;color:#000000;fill:#000000;fill-opacity:0.35978836;stroke:none;stroke-width:1px;marker:none;visibility:visible;display:inline;overflow:visible;enable-background:accumulate;font-family:Sans;-inkscape-font-specification:Sans"
   d="m 63.746084,57.29474 -0.175106,1.794838 1.260764,-1.243255 0.253904,-1.628487 z"
   id="path5621"
   inkscape:connector-curvature="0"
   sodipodi:nodetypes="ccccc" /><path
   style="font-size:medium;font-style:normal;font-variant:normal;font-weight:normal;font-stretch:normal;text-indent:0;text-align:start;text-decoration:none;line-height:normal;letter-spacing:normal;word-spacing:normal;text-transform:none;direction:ltr;block-progression:tb;writing-mode:lr-tb;text-anchor:start;baseline-shift:baseline;color:#000000;fill:#000000;fill-opacity:0.2962963;stroke:none;stroke-width:1px;marker:none;visibility:visible;display:inline;overflow:visible;enable-background:accumulate;font-family:Sans;-inkscape-font-specification:Sans"
   d="m 60.165163,54.45802 -1.181967,1.252008 0.140085,1.864881 1.216988,-1.505912 z"
   id="path5623"
   inkscape:connector-curvature="0"
   sodipodi:nodetypes="ccccc" /><path
   style="font-size:medium;font-style:normal;font-variant:normal;font-weight:normal;font-stretch:normal;text-indent:0;text-align:start;text-decoration:none;line-height:normal;letter-spacing:normal;word-spacing:normal;text-transform:none;direction:ltr;block-progression:tb;writing-mode:lr-tb;text-anchor:start;baseline-shift:baseline;color:#000000;fill:#000000;fill-opacity:0.20634921;stroke:none;stroke-width:1px;marker:none;visibility:visible;display:inline;overflow:visible;enable-background:accumulate;font-family:Sans;-inkscape-font-specification:Sans"
   d="m 52.810704,54.897801 0.744198,2.110047 0.569096,-1.926169 -0.464041,-1.43587 z"
   id="path5625"
   inkscape:connector-curvature="0"
   sodipodi:nodetypes="ccccc" /><path
   style="font-size:medium;font-style:normal;font-variant:normal;font-weight:normal;font-stretch:normal;text-indent:0;text-align:start;text-decoration:none;line-height:normal;letter-spacing:normal;word-spacing:normal;text-transform:none;direction:ltr;block-progression:tb;writing-mode:lr-tb;text-anchor:start;baseline-shift:baseline;color:#000000;fill:#000000;fill-opacity:0.32275133;stroke:none;stroke-width:1px;marker:none;visibility:visible;display:inline;overflow:visible;enable-background:accumulate;font-family:Sans;-inkscape-font-specification:Sans"
   d="m 48.284209,55.473635 -1.339562,-1.558445 -0.13133,1.971978 1.155701,1.372551 z"
   id="path5627"
   inkscape:connector-curvature="0"
   sodipodi:nodetypes="ccccc" /><path
   style="font-size:medium;font-style:normal;font-variant:normal;font-weight:normal;font-stretch:normal;text-indent:0;text-align:start;text-decoration:none;line-height:normal;letter-spacing:normal;word-spacing:normal;text-transform:none;direction:ltr;block-progression:tb;writing-mode:lr-tb;text-anchor:start;baseline-shift:baseline;color:#000000;fill:#000000;fill-opacity:0.39682539;stroke:none;stroke-width:1px;marker:none;visibility:visible;display:inline;overflow:visible;enable-background:accumulate;font-family:Sans;-inkscape-font-specification:Sans"
   d="m 41.63893,55.887168 0.315191,1.468859 1.12068,1.085658 -0.157597,-1.724796 z"
   id="path5629"
   inkscape:connector-curvature="0"
   sodipodi:nodetypes="ccccc" /><path
   style="font-size:medium;font-style:normal;font-variant:normal;font-weight:normal;font-stretch:normal;text-indent:0;text-align:start;text-decoration:none;line-height:normal;letter-spacing:normal;word-spacing:normal;text-transform:none;direction:ltr;block-progression:tb;writing-mode:lr-tb;text-anchor:start;baseline-shift:baseline;color:#000000;fill:#000000;fill-opacity:0.25396824;stroke:none;stroke-width:1px;marker:none;visibility:visible;display:inline;overflow:visible;enable-background:accumulate;font-family:Sans;-inkscape-font-specification:Sans"
   d="m 38.276891,58.467951 0.752957,1.339561 1.208232,0.866775 -0.805488,-1.584711 z"
   id="path5631"
   inkscape:connector-curvature="0"
   sodipodi:nodetypes="ccccc" /><path
   style="font-size:medium;font-style:normal;font-variant:normal;font-weight:normal;font-stretch:normal;text-indent:0;text-align:start;text-decoration:none;line-height:normal;letter-spacing:normal;word-spacing:normal;text-transform:none;direction:ltr;block-progression:tb;writing-mode:lr-tb;text-anchor:start;baseline-shift:baseline;color:#000000;fill:#000000;fill-opacity:0.31216931;stroke:none;stroke-width:1px;marker:none;visibility:visible;display:inline;overflow:visible;enable-background:accumulate;font-family:Sans;-inkscape-font-specification:Sans"
   d="m 41.323739,41.885397 c 0,0 -0.299477,-0.183752 -0.455277,-0.148841 -0.282034,0.0632 -0.630381,0.595361 -0.630381,0.595361 l -0.166352,4.395165 1.216988,-0.621627 z"
   id="path5647"
   inkscape:connector-curvature="0"
   sodipodi:nodetypes="cacccc" /><path
   style="font-size:medium;font-style:normal;font-variant:normal;font-weight:normal;font-stretch:normal;text-indent:0;text-align:start;text-decoration:none;line-height:normal;letter-spacing:normal;word-spacing:normal;text-transform:none;direction:ltr;block-progression:tb;writing-mode:lr-tb;text-anchor:start;baseline-shift:baseline;color:#000000;fill:#000000;fill-opacity:0.3068783;stroke:none;stroke-width:1px;marker:none;visibility:visible;display:inline;overflow:visible;enable-background:accumulate;font-family:Sans;-inkscape-font-specification:Sans"
   d="m 47.233572,39.775367 c 0,0 -0.456909,-0.127456 -0.682914,-0.08755 -0.287929,0.05084 -0.779222,0.402745 -0.779222,0.402745 l 0.05253,4.589815 1.392095,-0.369756 z"
   id="path5649"
   inkscape:connector-curvature="0"
   sodipodi:nodetypes="cacccc" /><path
   style="font-size:medium;font-style:normal;font-variant:normal;font-weight:normal;font-stretch:normal;text-indent:0;text-align:start;text-decoration:none;line-height:normal;letter-spacing:normal;word-spacing:normal;text-transform:none;direction:ltr;block-progression:tb;writing-mode:lr-tb;text-anchor:start;baseline-shift:baseline;color:#000000;fill:#000000;fill-opacity:0.36507939;stroke:none;stroke-width:1px;marker:none;visibility:visible;display:inline;overflow:visible;enable-background:accumulate;font-family:Sans;-inkscape-font-specification:Sans"
   d="m 52.801949,39.188761 -0.02627,4.710356 1.654753,0.01751 0.0088,-4.596537 c 0,0 -0.504802,-0.389299 -0.805488,-0.411499 -0.291764,-0.02154 -0.831754,0.280169 -0.831754,0.280169 z"
   id="path5651"
   inkscape:connector-curvature="0"
   sodipodi:nodetypes="ccccac" /><path
   style="font-size:medium;font-style:normal;font-variant:normal;font-weight:normal;font-stretch:normal;text-indent:0;text-align:start;text-decoration:none;line-height:normal;letter-spacing:normal;word-spacing:normal;text-transform:none;direction:ltr;block-progression:tb;writing-mode:lr-tb;text-anchor:start;baseline-shift:baseline;color:#000000;fill:#000000;fill-opacity:0.27513224;stroke:none;stroke-width:1px;marker:none;visibility:visible;display:inline;overflow:visible;enable-background:accumulate;font-family:Sans;-inkscape-font-specification:Sans"
   d="m 59.832461,40.197656 0.07879,4.605291 1.30454,-0.01079 0.01752,-4.594503 c 0,0 -0.442661,-0.281125 -0.691666,-0.282204 -0.254421,-0.0011 -0.709184,0.282204 -0.709184,0.282204 z"
   id="path5653"
   inkscape:connector-curvature="0"
   sodipodi:nodetypes="ccccac" /><path
   style="font-size:medium;font-style:normal;font-variant:normal;font-weight:normal;font-stretch:normal;text-indent:0;text-align:start;text-decoration:none;line-height:normal;letter-spacing:normal;word-spacing:normal;text-transform:none;direction:ltr;block-progression:tb;writing-mode:lr-tb;text-anchor:start;baseline-shift:baseline;color:#000000;fill:#000000;fill-opacity:0.25925927;stroke:none;stroke-width:1px;marker:none;visibility:visible;display:inline;overflow:visible;enable-background:accumulate;font-family:Sans;-inkscape-font-specification:Sans"
   d="m 65.593454,42.165567 0.05253,4.544005 1.190722,0.367722 -0.02626,-4.298856 c 0,0 -0.183168,-0.393776 -0.358972,-0.499053 -0.247525,-0.148224 -0.858019,-0.113818 -0.858019,-0.113818 z"
   id="path5655"
   inkscape:connector-curvature="0"
   sodipodi:nodetypes="ccccac" /><path
   style="font-size:medium;font-style:normal;font-variant:normal;font-weight:normal;font-stretch:normal;text-indent:0;text-align:start;text-decoration:none;line-height:normal;letter-spacing:normal;word-spacing:normal;text-transform:none;direction:ltr;block-progression:tb;writing-mode:lr-tb;text-anchor:start;baseline-shift:baseline;color:#000000;fill:#000000;fill-opacity:0.37566139;stroke:none;stroke-width:1px;marker:none;visibility:visible;display:inline;overflow:visible;enable-background:accumulate;font-family:Sans;-inkscape-font-specification:Sans"
   d="m 67.207435,117.15877 c 0,0 -0.342916,-0.40499 -0.582616,-0.42633 -0.180496,-0.0161 -0.488536,0.23846 -0.488536,0.23846 l 0.05128,6.15704 1.12068,0.485 z"
   id="path5667"
   inkscape:connector-curvature="0"
   sodipodi:nodetypes="cacccc" /><path
   style="font-size:medium;font-style:normal;font-variant:normal;font-weight:normal;font-stretch:normal;text-indent:0;text-align:start;text-decoration:none;line-height:normal;letter-spacing:normal;word-spacing:normal;text-transform:none;direction:ltr;block-progression:tb;writing-mode:lr-tb;text-anchor:start;baseline-shift:baseline;color:#000000;fill:#000000;fill-opacity:0.29100527;stroke:none;stroke-width:1px;marker:none;visibility:visible;display:inline;overflow:visible;enable-background:accumulate;font-family:Sans;-inkscape-font-specification:Sans"
   d="m 64.333937,75.364981 0.06755,4.950011 1.083533,0.227125 -0.290427,-5.011921 c 0,0 -0.217865,-0.309987 -0.38699,-0.341357 -0.165627,-0.03072 -0.473666,0.176142 -0.473666,0.176142 z"
   id="path5671"
   inkscape:connector-curvature="0"
   sodipodi:nodetypes="ccccac" /></svg>