<?xml version="1.0" encoding="UTF-8" standalone="no"?>
<!-- Generator: Adobe Illustrator 17.0.2, SVG Export Plug-In . SVG Version: 6.00 Build 0)  -->

<svg
   xmlns:osb="http://www.openswatchbook.org/uri/2009/osb"
   xmlns:dc="http://purl.org/dc/elements/1.1/"
   xmlns:cc="http://creativecommons.org/ns#"
   xmlns:rdf="http://www.w3.org/1999/02/22-rdf-syntax-ns#"
   xmlns:svg="http://www.w3.org/2000/svg"
   xmlns="http://www.w3.org/2000/svg"
   xmlns:xlink="http://www.w3.org/1999/xlink"
   xmlns:sodipodi="http://sodipodi.sourceforge.net/DTD/sodipodi-0.dtd"
   xmlns:inkscape="http://www.inkscape.org/namespaces/inkscape"
   version="1.1"
   id="Layer_1"
   x="0px"
   y="0px"
   width="105.945px"
   height="140.869px"
   viewBox="0 0 105.945 157.869"
   enable-background="new 0 0 105.945 140.869"
   xml:space="preserve"
   inkscape:version="0.48.5 r10040"
   sodipodi:docname="logo.svg"><metadata
   id="metadata3296"><rdf:RDF><cc:Work
       rdf:about=""><dc:format>image/svg+xml</dc:format><dc:type
         rdf:resource="http://purl.org/dc/dcmitype/StillImage" /></cc:Work></rdf:RDF></metadata><defs
   id="defs3294"><linearGradient
     id="linearGradient5413"
     osb:paint="solid"><stop
       style="stop-color:#780000;stop-opacity:0.32941177;"
       offset="0"
       id="stop5415" /></linearGradient><linearGradient
     inkscape:collect="always"
     xlink:href="#linearGradient5413"
     id="linearGradient5417"
     x1="31.045007"
     y1="79.99474"
     x2="21.624294"
     y2="80.542114"
     gradientUnits="userSpaceOnUse" /></defs><sodipodi:namedview
   pagecolor="#ffffff"
   bordercolor="#666666"
   borderopacity="1"
   objecttolerance="10"
   gridtolerance="10"
   guidetolerance="10"
   inkscape:pageopacity="0"
   inkscape:pageshadow="2"
   inkscape:window-width="1920"
   inkscape:window-height="1137"
   id="namedview3292"
   showgrid="true"
   inkscape:zoom="3.9999998"
   inkscape:cx="36.938102"
   inkscape:cy="95.633808"
   inkscape:window-x="-8"
   inkscape:window-y="-8"
   inkscape:window-maximized="1"
   inkscape:current-layer="Layer_1"><inkscape:grid
     type="xygrid"
     id="grid3106"
     empspacing="5"
     visible="true"
     enabled="true"
     snapvisiblegridlinesonly="true" /></sodipodi:namedview>


<g
   id="g3262"
   transform="matrix(0.80913361,0,0,0.80913361,73.885291,11.065444)">
</g><g
   id="g3264"
   transform="matrix(0.80913361,0,0,0.80913361,73.885291,11.065444)">
</g><g
   id="g3266"
   transform="matrix(0.80913361,0,0,0.80913361,73.885291,11.065444)">
</g><g
   id="g3268"
   transform="matrix(0.80913361,0,0,0.80913361,73.885291,11.065444)">
</g><g
   id="g3270"
   transform="matrix(0.80913361,0,0,0.80913361,73.885291,11.065444)">
</g><g
   id="g3272"
   transform="matrix(0.80913361,0,0,0.80913361,73.885291,11.065444)">
</g><g
   id="g3274"
   transform="matrix(0.80913361,0,0,0.80913361,73.885291,11.065444)">
</g><g
   id="g3276"
   transform="matrix(0.80913361,0,0,0.80913361,73.885291,11.065444)">
</g><g
   id="g3278"
   transform="matrix(0.80913361,0,0,0.80913361,73.885291,11.065444)">
</g><g
   id="g3280"
   transform="matrix(0.80913361,0,0,0.80913361,73.885291,11.065444)">
</g><g
   id="g3282"
   transform="matrix(0.80913361,0,0,0.80913361,73.885291,11.065444)">
</g><g
   id="g3284"
   transform="matrix(0.80913361,0,0,0.80913361,73.885291,11.065444)">
</g><g
   id="g3286"
   transform="matrix(0.80913361,0,0,0.80913361,73.885291,11.065444)">
</g><g
   id="g3288"
   transform="matrix(0.80913361,0,0,0.80913361,73.885291,11.065444)">
</g><g
   id="g3290"
   transform="matrix(0.80913361,0,0,0.80913361,73.885291,11.065444)">
</g><text
   xml:space="preserve"
   style="font-size:32.365345px;font-style:normal;font-weight:normal;line-height:125%;letter-spacing:0px;word-spacing:0px;fill:#000000;fill-opacity:1;stroke:none;font-family:Sans"
   x="86.75853"
   y="118.20538"
   id="text3108"
   sodipodi:linespacing="125%"><tspan
     sodipodi:role="line"
     id="tspan3110"
     x="86.75853"
     y="118.20538" /></text>
<g
   id="g3070"
   transform="matrix(0.90677945,0,0,0.90677945,48.203308,-74.29061)" />



















<path
   style="font-size:medium;font-style:normal;font-variant:normal;font-weight:normal;font-stretch:normal;text-indent:0;text-align:start;text-decoration:none;line-height:normal;letter-spacing:normal;word-spacing:normal;text-transform:none;direction:ltr;block-progression:tb;writing-mode:lr-tb;text-anchor:start;baseline-shift:baseline;color:#000000;fill:url(#linearGradient5417);fill-opacity:1;stroke:none;stroke-width:1px;marker:none;visibility:visible;display:inline;overflow:visible;enable-background:accumulate;font-family:Sans;-inkscape-font-specification:Sans"
   d="m 53.29733,11.381918 c -1.414691,0.798751 -1.733324,1.09845 -2.303205,1.91943 -0.540149,0.778147 -0.887155,1.735674 -0.941089,2.681383 -0.04122,0.722826 0.481631,2.117928 0.481631,2.117928 l -0.01747,1.725811 c 0,0 -1.888434,1.075101 -2.342863,1.994566 -0.397409,0.804094 -0.323043,1.808783 -0.141254,2.687107 0.09666,0.467041 0.636105,1.281644 0.636105,1.281644 l -7.99334,8.804471 c 0,0 -2.829691,1.983771 -3.817315,3.362039 -0.707154,0.986862 -1.224825,2.160797 -1.400849,3.362038 -0.163363,1.114838 -0.05279,2.361027 0.350212,3.362038 l -0.03502,11.59875 c 0,0 -0.802638,1.220001 -0.875531,1.919447 -0.132916,1.275405 0.24478,2.618463 0.840513,3.753993 0.487408,0.929051 1.335325,1.633795 2.136296,2.311401 0.585846,0.495614 1.727795,0.706263 1.926167,1.260764 -0.04141,0.620701 -0.09441,1.36747 0.105064,2.007 0.145736,0.46725 0.770464,1.249976 0.770464,1.249976 l -0.612868,15.122451 c -0.379197,0.532741 -0.646281,1.007816 -0.735445,1.582678 -0.09165,0.590888 -0.160556,1.308011 0.227633,1.77936 l -0.893037,18.165237 c 0,0 -0.609187,0.77281 -0.647893,1.23653 -0.03749,0.44909 0.420251,1.285 0.420251,1.285 l -1.120681,19.20914 c -0.580281,0.41848 -1.239576,1.18875 -1.453376,1.9787 -0.116532,0.43056 0.140085,1.33081 0.140085,1.33081 l -2.048747,21.23767 c 0,0 -0.568013,0.30967 -0.763969,0.55632 -1.137427,1.43171 -2.142789,5.04978 -2.142789,5.04978 0,0 28.530633,0 42.795949,0 0,0 -0.815353,-3.32244 -1.856132,-4.61201 -0.163423,-0.20249 -0.646325,-0.43777 -0.646325,-0.43777 l -1.560006,-21.95157 c 0,0 -0.421944,-1.3013 -0.805489,-1.85606 -0.333231,-0.48199 -0.758554,-0.79389 -1.261492,-1.22427 l -0.544802,-18.96494 c 0,0 0.559455,-1.30489 0.405439,-1.95102 -0.120551,-0.50573 -0.972097,-1.21973 -0.972097,-1.21973 L 66.223838,87.476472 c 0.314393,-0.437196 0.578498,-1.19037 0.507814,-1.814431 -0.05909,-0.521658 -0.752956,-1.383337 -0.752956,-1.383337 l -0.6479,-14.943382 c 0,0 0.733744,-1.163377 0.928073,-1.814278 0.171306,-0.573787 0.383177,-1.007616 0.192607,-1.786083 0.46234,-0.429514 1.154828,-0.665487 1.90752,-1.172702 0.9811,-0.661133 2.23262,-2.104277 2.767814,-3.071693 0.54708,-0.988902 0.421015,-1.931954 0.28018,-2.889252 -0.109812,-0.746428 -0.264198,-0.704651 -0.858021,-2.094449 l 0.103606,-11.826492 c 0,0 0.789596,-1.448923 0.79244,-2.241358 0.005,-1.385193 -0.243114,-2.094613 -1.357041,-3.927784 -0.867385,-1.427442 -2.124501,-2.210719 -2.79525,-2.796293 l -9.387149,-9.93708 c 0.536361,-0.391503 0.897779,-0.746556 1.093427,-1.269715 0.300849,-0.804466 0.367833,-1.794737 0.01238,-2.576612 -0.438951,-0.965545 -1.484537,-1.334357 -2.407602,-2.080395 l -0.04378,-1.747692 c 0.315543,-0.811398 0.52866,-1.435727 0.516349,-2.183549 -0.01489,-0.904329 -0.216421,-1.861294 -0.710993,-2.618547 -0.552976,-0.846677 -2.361261,-1.904795 -2.361261,-1.904795 l -0.164882,-8.7224523 -0.331384,1e-7 z"
   id="path3179"
   inkscape:connector-curvature="0"
   sodipodi:nodetypes="caaccaaccaaccaaacaccacccccaccaccaccaccaccaccacssaccasccaaccaacccc" /></svg>